<svg xmlns="http://www.w3.org/2000/svg" viewBox="0 0 960 600" role="img" aria-labelledby="t d"><title id="t">Bandora Org</title><desc id="d">Organisation mit lokalem Offline-Betrieb und Synchronisation</desc><defs><linearGradient id="b" x2="1" y2="1"><stop stop-color="#070b14"/><stop offset="1" stop-color="#17243b"/></linearGradient><linearGradient id="g"><stop stop-color="#f6d77d"/><stop offset="1" stop-color="#9a652d"/></linearGradient></defs><rect width="960" height="600" fill="url(#b)"/><g stroke="#334155" opacity=".35"><path d="M0 100h960M0 200h960M0 300h960M0 400h960M0 500h960M160 0v600M320 0v600M480 0v600M640 0v600M800 0v600"/></g><text x="60" y="76" fill="#f8fafc" font-family="Arial" font-size="32" font-weight="700">ORGANIZATION WORKSPACE</text><text x="60" y="110" fill="#94a3b8" font-family="Arial" font-size="17">Local-first operations · roles · documents · reliable updates</text><g fill="#0c1424" stroke="url(#g)" stroke-width="2"><rect x="60" y="165" width="220" height="315" rx="18"/><rect x="330" y="165" width="570" height="145" rx="18"/><rect x="330" y="335" width="270" height="145" rx="18"/><rect x="630" y="335" width="270" height="145" rx="18"/></g><g font-family="Arial"><text x="88" y="210" fill="#f5d47d" font-size="17">ORGANISATION</text><text x="88" y="260" fill="#e2e8f0" font-size="22">Büro Nord</text><text x="88" y="300" fill="#e2e8f0" font-size="22">Büro West</text><text x="88" y="340" fill="#e2e8f0" font-size="22">Coaches</text><text x="360" y="210" fill="#67e8f9" font-size="17">HAUPTGERÄT · ONLINE</text><text x="360" y="258" fill="#64748b" font-size="28">42 Teilnehmer</text><text x="360" y="380" fill="#f5d47d" font-size="17">OFFLINE-FALL</text><text x="360" y="425" fill="#e2e8f0" font-size="20">Lokales Arbeiten</text><text x="660" y="380" fill="#67e8f9" font-size="17">SYNC-STATUS</text><text x="660" y="425" fill="#e2e8f0" font-size="20">Dokumente aktuell</text></g><path d="M470 310v25m265-25v25" stroke="#22d3ee" stroke-width="4"/><circle cx="852" cy="207" r="9" fill="#22d3ee"/></svg>
